<svg width="64" height="64" viewBox="0 0 64 64" fill="none" xmlns="http://www.w3.org/2000/svg">
<g clip-path="url(#clip0_4500_6189)">
<path d="M64 0H0V64H64V0Z" fill="#4070F4"/>
<path d="M28.5846 47.9535L32.7614 43.2589C32.8312 43.1832 32.7731 43.0611 32.6742 43.0611H28.0784C28.0435 43.0611 28.0144 43.0436 27.9912 43.0204L24.0877 38.6399C24.0528 38.5991 24.047 38.5468 24.0761 38.5002L30.5916 27.3134C30.6148 27.2785 30.6148 27.232 30.5916 27.1971L27.8748 22.5315C27.8283 22.4559 27.7178 22.4559 27.6712 22.5315L18.0144 39.1111C17.9911 39.1576 17.9969 39.21 18.026 39.2507L25.7748 47.9535C25.7748 47.9535 25.8271 47.9942 25.862 47.9942H28.4857C28.5206 47.9942 28.5496 47.9826 28.5729 47.9535" fill="#F7F9FB"/>
<path d="M31.4461 16.0567L28.7294 20.7223C28.7061 20.7572 28.7061 20.8037 28.7294 20.8386L31.545 25.6787L39.0145 38.506C39.0378 38.5526 39.0378 38.6049 39.0029 38.6456L35.0645 43.0669L30.8527 47.8022C30.7829 47.8778 30.8411 48 30.94 48H37.2228C37.2577 48 37.2867 47.9884 37.31 47.9593L45.0588 39.2565C45.0937 39.2157 45.0995 39.1634 45.0704 39.1168L31.6555 16.0567C31.609 15.9811 31.4984 15.9811 31.4519 16.0567" fill="#F7F9FB"/>
</g>
<defs>
<clipPath id="clip0_4500_6189">
<rect width="64" height="64" fill="white"/>
</clipPath>
</defs>
</svg>
